<svg viewBox="0 0 100 100" xmlns="http://www.w3.org/2000/svg" xmlns:xlink="http://www.w3.org/1999/xlink"><style>.cls-1{fill:#f3785b}</style><path class="cls-1" d="M25.64,89.7,3,49.82,26.59,8.63H73.4L97,49.83,73.4,91.37H26.58l-.94-1.67ZM10.51,49.85,30.38,84.8H69.6L89.49,49.86,69.6,15.2H30.38L10.51,49.85Z"/><polygon class="cls-1" points="35.68 23.16 63.43 63.74 75.4 43.11 79.37 49.91 63.41 76.68 31.66 30.17 35.68 23.16 35.68 23.16"/><path class="cls-1" d="M64.27,23.73,53.79,39.06l4.42,6.47L68.29,30.75l-4-7ZM42,56.26l-5.51,8.05-12-20.63-4,6.8,16,26.78,9.91-14.53L42,56.26Z"/></svg>